<svg width="18" height="20" viewBox="0 0 18 20" fill="none" xmlns="http://www.w3.org/2000/svg">
<path d="M15 14.0629C14.24 14.0629 13.56 14.3529 13.04 14.8071L5.91 10.7959C5.96 10.5736 6 10.3513 6 10.1193C6 9.88732 5.96 9.66501 5.91 9.4427L12.96 5.4701C13.5 5.95339 14.21 6.25302 15 6.25302C16.66 6.25302 18 4.95782 18 3.35332C18 1.74881 16.66 0.453613 15 0.453613C13.34 0.453613 12 1.74881 12 3.35332C12 3.58529 12.04 3.8076 12.09 4.02991L5.04 8.00251C4.5 7.51923 3.79 7.21959 3 7.21959C1.34 7.21959 0 8.51479 0 10.1193C0 11.7238 1.34 13.019 3 13.019C3.79 13.019 4.5 12.7194 5.04 12.2361L12.16 16.2473C12.11 16.4503 12.08 16.663 12.08 16.8853C12.08 18.4414 13.39 19.698 15 19.698C16.61 19.698 17.92 18.4414 17.92 16.8853C17.92 15.3291 16.61 14.0629 15 14.0629ZM15 2.38675C15.55 2.38675 16 2.82171 16 3.35332C16 3.88493 15.55 4.31989 15 4.31989C14.45 4.31989 14 3.88493 14 3.35332C14 2.82171 14.45 2.38675 15 2.38675ZM3 11.0859C2.45 11.0859 2 10.6509 2 10.1193C2 9.58768 2.45 9.15273 3 9.15273C3.55 9.15273 4 9.58768 4 10.1193C4 10.6509 3.55 11.0859 3 11.0859ZM15 17.8518C14.45 17.8518 14 17.4169 14 16.8853C14 16.3537 14.45 15.9187 15 15.9187C15.55 15.9187 16 16.3537 16 16.8853C16 17.4169 15.55 17.8518 15 17.8518Z" fill="#545776"/>
</svg>
