<svg width="21" height="20" viewBox="0 0 21 20" fill="none" xmlns="http://www.w3.org/2000/svg">
<path d="M10.605 16.2034L10.5 16.3069L10.3845 16.2034C5.397 11.7407 2.1 8.78973 2.1 5.79736C2.1 3.72652 3.675 2.17338 5.775 2.17338C7.392 2.17338 8.967 3.20881 9.5235 4.61698H11.4765C12.033 3.20881 13.608 2.17338 15.225 2.17338C17.325 2.17338 18.9 3.72652 18.9 5.79736C18.9 8.78973 15.603 11.7407 10.605 16.2034ZM15.225 0.102539C13.398 0.102539 11.6445 0.941231 10.5 2.25622C9.3555 0.941231 7.602 0.102539 5.775 0.102539C2.541 0.102539 0 2.59791 0 5.79736C0 9.7009 3.57 12.9004 8.9775 17.7358L10.5 19.1025L12.0225 17.7358C17.43 12.9004 21 9.7009 21 5.79736C21 2.59791 18.459 0.102539 15.225 0.102539Z" fill="#545776"/>
</svg>
